<mxfile host="app.diagrams.net" modified="2024-06-18T17:01:20.498Z" agent="Mozilla/5.0 (Windows NT 10.0; Win64; x64) AppleWebKit/537.36 (KHTML, like Gecko) Chrome/123.0.0.0 Safari/537.36" etag="0x06bb4i4600_K-pcTny" version="24.5.5" type="github">
  <diagram name="Página-1" id="yDGBz6cD-4OX2Fw0Tfym">
    <mxGraphModel dx="794" dy="454" grid="1" gridSize="10" guides="1" tooltips="1" connect="1" arrows="1" fold="1" page="1" pageScale="1" pageWidth="827" pageHeight="1169" math="0" shadow="0">
      <root>
        <mxCell id="0" />
        <mxCell id="1" parent="0" />
        <mxCell id="On8E48bCSPUUQbaGTQ3R-1" value="&lt;font style=&quot;font-size: 18px;&quot;&gt;Componente base&amp;nbsp;&lt;/font&gt;" style="text;html=1;align=center;verticalAlign=middle;resizable=0;points=[];autosize=1;strokeColor=none;fillColor=none;" vertex="1" parent="1">
          <mxGeometry x="100" y="263" width="180" height="40" as="geometry" />
        </mxCell>
        <mxCell id="On8E48bCSPUUQbaGTQ3R-2" value="" style="endArrow=none;html=1;rounded=0;" edge="1" parent="1">
          <mxGeometry width="50" height="50" relative="1" as="geometry">
            <mxPoint x="200" y="680" as="sourcePoint" />
            <mxPoint x="200" y="320" as="targetPoint" />
          </mxGeometry>
        </mxCell>
        <mxCell id="On8E48bCSPUUQbaGTQ3R-3" value="" style="endArrow=none;html=1;rounded=0;" edge="1" parent="1">
          <mxGeometry width="50" height="50" relative="1" as="geometry">
            <mxPoint x="360" y="360" as="sourcePoint" />
            <mxPoint x="40" y="360" as="targetPoint" />
          </mxGeometry>
        </mxCell>
        <mxCell id="On8E48bCSPUUQbaGTQ3R-4" value="&lt;font style=&quot;font-size: 14px;&quot;&gt;Story point&lt;/font&gt;" style="text;html=1;align=center;verticalAlign=middle;resizable=0;points=[];autosize=1;strokeColor=none;fillColor=none;" vertex="1" parent="1">
          <mxGeometry x="55" y="318" width="90" height="30" as="geometry" />
        </mxCell>
        <mxCell id="On8E48bCSPUUQbaGTQ3R-5" value="&lt;font style=&quot;font-size: 14px;&quot;&gt;Tasks&amp;nbsp;&lt;/font&gt;" style="text;html=1;align=center;verticalAlign=middle;resizable=0;points=[];autosize=1;strokeColor=none;fillColor=none;" vertex="1" parent="1">
          <mxGeometry x="240" y="318" width="60" height="30" as="geometry" />
        </mxCell>
        <mxCell id="On8E48bCSPUUQbaGTQ3R-6" value="" style="ellipse;whiteSpace=wrap;html=1;" vertex="1" parent="1">
          <mxGeometry x="60" y="380" width="85" height="50" as="geometry" />
        </mxCell>
        <mxCell id="On8E48bCSPUUQbaGTQ3R-7" value="" style="ellipse;whiteSpace=wrap;html=1;" vertex="1" parent="1">
          <mxGeometry x="60" y="440" width="85" height="50" as="geometry" />
        </mxCell>
        <mxCell id="On8E48bCSPUUQbaGTQ3R-8" value="" style="ellipse;whiteSpace=wrap;html=1;" vertex="1" parent="1">
          <mxGeometry x="60" y="500" width="85" height="50" as="geometry" />
        </mxCell>
        <mxCell id="On8E48bCSPUUQbaGTQ3R-9" value="" style="ellipse;whiteSpace=wrap;html=1;" vertex="1" parent="1">
          <mxGeometry x="60" y="559.5" width="85" height="50" as="geometry" />
        </mxCell>
        <mxCell id="On8E48bCSPUUQbaGTQ3R-10" value="" style="ellipse;whiteSpace=wrap;html=1;" vertex="1" parent="1">
          <mxGeometry x="60" y="620" width="85" height="50" as="geometry" />
        </mxCell>
        <mxCell id="On8E48bCSPUUQbaGTQ3R-11" value="8&lt;span style=&quot;color: rgba(0, 0, 0, 0); font-family: monospace; font-size: 0px; text-align: start; text-wrap: nowrap;&quot;&gt;%3CmxGraphModel%3E%3Croot%3E%3CmxCell%20id%3D%220%22%2F%3E%3CmxCell%20id%3D%221%22%20parent%3D%220%22%2F%3E%3CmxCell%20id%3D%222%22%20value%3D%22%22%20style%3D%22ellipse%3BwhiteSpace%3Dwrap%3Bhtml%3D1%3B%22%20vertex%3D%221%22%20parent%3D%221%22%3E%3CmxGeometry%20x%3D%2260%22%20y%3D%22380%22%20width%3D%2285%22%20height%3D%2250%22%20as%3D%22geometry%22%2F%3E%3C%2FmxCell%3E%3C%2Froot%3E%3C%2FmxGraphModel%3E&lt;/span&gt;" style="text;html=1;align=center;verticalAlign=middle;whiteSpace=wrap;rounded=0;" vertex="1" parent="1">
          <mxGeometry x="73" y="390" width="60" height="30" as="geometry" />
        </mxCell>
        <mxCell id="On8E48bCSPUUQbaGTQ3R-12" value="3" style="text;html=1;align=center;verticalAlign=middle;whiteSpace=wrap;rounded=0;" vertex="1" parent="1">
          <mxGeometry x="73" y="450" width="60" height="30" as="geometry" />
        </mxCell>
        <mxCell id="On8E48bCSPUUQbaGTQ3R-13" value="2" style="text;html=1;align=center;verticalAlign=middle;whiteSpace=wrap;rounded=0;" vertex="1" parent="1">
          <mxGeometry x="73" y="510" width="60" height="30" as="geometry" />
        </mxCell>
        <mxCell id="On8E48bCSPUUQbaGTQ3R-14" value="2" style="text;html=1;align=center;verticalAlign=middle;whiteSpace=wrap;rounded=0;" vertex="1" parent="1">
          <mxGeometry x="72.5" y="570" width="60" height="30" as="geometry" />
        </mxCell>
        <mxCell id="On8E48bCSPUUQbaGTQ3R-15" value="8" style="text;html=1;align=center;verticalAlign=middle;whiteSpace=wrap;rounded=0;" vertex="1" parent="1">
          <mxGeometry x="73" y="630" width="60" height="30" as="geometry" />
        </mxCell>
        <mxCell id="On8E48bCSPUUQbaGTQ3R-16" value="&lt;font style=&quot;font-size: 14px;&quot;&gt;Componente SideBar&lt;/font&gt;" style="text;html=1;align=center;verticalAlign=middle;whiteSpace=wrap;rounded=0;" vertex="1" parent="1">
          <mxGeometry x="220" y="390" width="140" height="30" as="geometry" />
        </mxCell>
        <mxCell id="On8E48bCSPUUQbaGTQ3R-17" value="&lt;font style=&quot;font-size: 14px;&quot;&gt;Componente Table&lt;/font&gt;" style="text;html=1;align=center;verticalAlign=middle;whiteSpace=wrap;rounded=0;" vertex="1" parent="1">
          <mxGeometry x="220" y="450" width="120" height="30" as="geometry" />
        </mxCell>
        <mxCell id="On8E48bCSPUUQbaGTQ3R-18" value="&lt;font style=&quot;font-size: 14px;&quot;&gt;Componente de Pesquisa&amp;nbsp;&lt;/font&gt;" style="text;html=1;align=center;verticalAlign=middle;whiteSpace=wrap;rounded=0;" vertex="1" parent="1">
          <mxGeometry x="210" y="510" width="180" height="30" as="geometry" />
        </mxCell>
        <mxCell id="On8E48bCSPUUQbaGTQ3R-19" value="&lt;font style=&quot;font-size: 14px;&quot;&gt;Componente de Botão&lt;/font&gt;" style="text;html=1;align=center;verticalAlign=middle;whiteSpace=wrap;rounded=0;" vertex="1" parent="1">
          <mxGeometry x="210" y="570" width="160" height="30" as="geometry" />
        </mxCell>
        <mxCell id="On8E48bCSPUUQbaGTQ3R-20" value="&lt;font style=&quot;font-size: 14px;&quot;&gt;Componente de Modal&lt;/font&gt;" style="text;html=1;align=center;verticalAlign=middle;whiteSpace=wrap;rounded=0;" vertex="1" parent="1">
          <mxGeometry x="210" y="630" width="160" height="30" as="geometry" />
        </mxCell>
      </root>
    </mxGraphModel>
  </diagram>
</mxfile>
